
<svg width="512" height="512" viewBox="0 0 512 512" fill="none" xmlns="http://www.w3.org/2000/svg">
<path d="M502.234 92.8109C500.324 85.2992 466.585 57.1619 402.162 82.1162C314.822 115.983 273.826 187.026 266.823 200.394C265.932 199.121 266.187 199.63 265.55 198.485C265.55 198.485 265.677 198.485 265.677 198.612C265.55 198.357 265.423 198.23 265.168 197.975C265.55 198.23 265.805 198.357 266.187 198.612C265.932 198.23 265.55 197.721 265.296 197.339C265.423 197.339 265.55 197.466 265.677 197.466C265.55 197.339 265.423 197.211 265.296 197.084C265.677 197.211 265.932 197.339 266.314 197.339C265.932 196.957 265.55 196.702 265.296 196.32L265.168 196.193C265.041 196.066 264.914 195.938 264.786 195.811C265.168 195.938 265.423 195.938 265.805 196.066C265.168 195.684 264.532 195.302 264.022 194.792C264.15 194.792 264.277 194.792 264.277 194.792C264.15 194.665 264.022 194.665 263.895 194.538C264.15 194.538 264.404 194.538 264.786 194.538C264.404 194.283 264.022 194.028 263.64 193.647C264.022 193.647 264.277 193.774 264.659 193.774C264.532 193.774 264.15 193.519 263.768 193.265C263.895 193.137 264.022 193.01 264.15 192.883C265.55 191.1 265.168 189.063 265.168 188.936L265.041 188.427C265.805 187.663 266.314 186.517 266.314 185.371C266.314 183.079 264.404 181.169 262.24 181.169C261.858 181.169 261.603 181.169 261.221 181.297L260.712 180.787C260.075 180.151 259.439 179.769 258.802 179.514C260.839 173.148 265.423 160.926 273.444 152.141C290.504 133.298 308.965 132.534 298.143 133.298C294.579 133.553 264.404 145.393 258.166 179.387C257.784 179.26 257.529 179.26 257.147 179.26C256.765 179.26 256.383 179.387 256.129 179.387C255.874 179.26 255.492 179.26 255.11 179.26C254.855 179.26 254.474 179.26 253.964 179.387C247.726 145.266 217.551 133.553 213.986 133.298C203.292 132.534 221.753 133.298 238.686 152.141C246.707 161.053 251.291 173.276 253.328 179.642C252.818 179.896 252.182 180.278 251.545 180.915L251.036 181.424V181.551C250.654 181.424 250.272 181.297 249.89 181.297C247.598 181.297 245.816 183.206 245.816 185.498C245.816 186.771 246.325 187.79 247.216 188.554L247.089 189.063C247.089 189.19 246.707 191.228 248.108 193.01C248.235 193.137 248.362 193.265 248.362 193.392C247.98 193.647 247.598 193.901 247.471 193.901C247.853 193.901 248.108 193.774 248.49 193.774C248.49 193.774 248.49 193.774 248.362 193.774C248.108 193.901 247.853 194.028 247.726 194.156H247.853C247.598 194.283 247.471 194.41 247.216 194.665C247.471 194.665 247.726 194.665 247.98 194.665C247.853 194.792 247.726 194.792 247.598 194.92C247.726 194.92 247.853 194.92 247.98 194.92C247.344 195.302 246.707 195.684 246.198 196.193C246.58 196.066 246.834 196.066 247.216 195.938C246.962 196.066 246.834 196.193 246.58 196.32C246.707 196.32 246.707 196.32 246.834 196.32C246.452 196.702 246.071 197.084 245.689 197.466C245.943 197.339 246.198 197.339 246.452 197.211C246.325 197.339 246.198 197.466 246.071 197.593C246.198 197.593 246.452 197.466 246.58 197.466C246.325 197.975 245.943 198.357 245.689 198.867C245.943 198.739 246.198 198.612 246.452 198.357C246.325 198.485 246.198 198.739 246.071 198.867C246.198 198.739 246.325 198.739 246.452 198.612C245.816 199.885 246.071 199.376 245.179 200.649C238.05 187.281 197.053 116.237 109.841 82.3708C45.4178 57.4166 11.6786 85.4265 9.76881 93.0655C6.45855 106.179 15.8801 116.874 36.3782 143.101C56.8764 169.329 46.1817 167.674 55.2212 181.169C64.2608 194.665 56.4944 191.355 66.2979 207.397C66.2979 207.397 80.1755 245.465 103.602 243.937C103.602 243.937 97.8727 255.778 96.9815 259.47C96.2176 263.162 88.3239 266.472 87.9419 274.621C87.56 282.769 98.1273 292.19 101.056 293.082C101.056 293.082 92.9073 300.084 95.3263 308.233C96.9815 311.925 102.711 310.27 104.748 313.962C106.785 317.654 108.822 321.346 112.514 322.619C116.206 323.893 111.241 327.967 112.514 336.497C113.787 345.155 120.281 343.5 123.591 345.155C126.901 346.81 140.397 357.504 128.047 389.079C120.408 408.686 110.986 417.726 108.567 424.983C107.04 429.439 109.968 436.314 113.66 438.351C117.352 440.388 125.119 441.661 127.538 435.168C130.084 428.548 130.593 418.872 130.848 413.652C131.23 403.339 136.195 374.31 157.075 377.621C157.075 377.621 158.731 386.66 173.117 378.894C173.117 378.894 184.576 387.042 190.687 382.586C196.799 378.13 193.998 365.78 198.454 363.743C202.91 361.706 199.727 368.199 203.801 369.854C207.875 371.509 215.26 353.048 216.533 340.699C217.806 328.349 228.883 321.474 229.265 294.737C229.647 268.127 237.413 253.359 239.577 246.356C240.723 242.409 243.779 235.916 245.561 227.004C246.071 227.64 246.198 228.786 245.943 230.441C246.198 230.059 246.325 229.677 246.58 229.423C246.707 230.569 246.834 231.715 246.962 232.86C247.089 232.224 247.216 231.587 247.344 230.951C247.471 231.969 247.726 232.86 247.853 233.879C247.98 233.37 248.108 232.86 248.235 232.224C248.362 232.351 248.49 232.606 248.49 232.733C248.49 233.497 248.362 234.261 248.235 234.77C248.108 235.661 247.98 236.298 248.362 236.68L248.49 236.807C247.726 237.571 247.344 238.844 247.216 240.627C247.216 241.263 247.089 241.9 247.089 242.409C246.707 246.101 246.58 248.139 248.744 249.03C247.471 249.666 245.816 251.321 246.198 255.523C246.325 256.414 246.325 257.178 246.452 257.815C246.707 260.234 246.707 261.38 247.853 261.634C246.707 262.271 245.689 263.544 246.071 265.708C246.325 266.854 246.325 267.873 246.325 268.891C246.325 270.801 246.325 272.711 248.108 273.22C247.726 273.475 247.344 273.729 247.089 274.239C246.452 275.13 246.198 276.148 246.452 277.422L246.58 278.695C246.834 280.732 246.962 281.623 247.98 282.005C247.216 282.514 246.58 283.406 246.707 285.188C246.834 286.716 247.216 287.607 247.98 287.989C247.726 288.116 247.471 288.371 247.344 288.626C247.089 289.389 247.598 290.535 248.999 291.936C248.744 292.063 248.617 292.19 248.617 292.318C248.362 292.7 248.362 293.464 250.017 295.628C251.036 297.029 253.073 299.575 254.601 299.575C254.855 299.575 255.237 299.448 255.492 299.193C255.747 299.575 256.129 299.575 256.383 299.575C257.911 299.575 259.948 297.156 260.967 295.628C262.495 293.464 262.495 292.7 262.367 292.318C262.367 292.19 262.24 292.063 261.985 291.936C263.386 290.535 263.895 289.517 263.64 288.626C263.513 288.371 263.258 288.116 263.004 287.989C263.64 287.607 264.15 286.843 264.277 285.188C264.404 283.406 263.64 282.514 263.004 282.005C264.022 281.623 264.15 280.732 264.404 278.695L264.532 277.422C264.659 276.148 264.532 275.13 263.895 274.239C263.513 273.857 263.131 273.475 262.749 273.22C264.532 272.711 264.532 270.801 264.659 268.891C264.659 267.873 264.659 266.854 264.914 265.708C265.295 263.544 264.277 262.271 263.131 261.634C264.277 261.38 264.277 260.234 264.532 257.815C264.532 257.178 264.659 256.414 264.786 255.523C265.168 251.321 263.513 249.666 262.24 249.03C264.404 248.139 264.15 246.101 263.895 242.282C263.895 241.773 263.768 241.136 263.768 240.499C263.64 238.717 263.258 237.444 262.495 236.68L262.622 236.553C263.004 236.171 262.876 235.661 262.749 234.643C262.622 234.006 262.622 233.242 262.495 232.351C262.622 232.224 262.622 232.096 262.749 231.969C262.876 232.478 263.004 232.988 263.131 233.624C263.258 232.606 263.513 231.715 263.64 230.696C263.768 231.333 263.895 231.969 264.022 232.606C264.15 231.46 264.277 230.314 264.404 229.168C264.659 229.55 264.786 229.932 265.041 230.187C264.914 229.423 264.914 228.786 264.914 228.277C264.914 228.404 265.041 228.532 265.041 228.532C265.041 228.15 264.914 227.895 264.914 227.513C265.041 227.131 265.168 226.876 265.296 226.622C267.078 235.534 270.134 242.155 271.279 246.101C273.317 253.104 281.083 267.873 281.465 294.482C281.847 321.092 292.923 328.094 294.197 340.444C295.47 352.794 302.854 371.255 306.928 369.6C311.003 367.944 307.692 361.451 312.276 363.488C316.732 365.525 313.931 377.875 320.042 382.331C326.153 386.788 337.612 378.639 337.612 378.639C351.999 386.406 353.654 377.366 353.654 377.366C374.534 374.056 379.5 403.212 379.881 413.397C380.136 418.617 380.773 428.293 383.192 434.914C385.611 441.28 393.377 440.134 397.069 438.097C400.762 436.06 403.69 429.184 402.162 424.728C399.743 417.471 390.322 408.432 382.682 388.825C370.333 357.25 383.956 346.555 387.139 344.9C390.449 343.245 396.942 344.9 398.215 336.242C399.488 327.585 394.523 323.511 398.215 322.365C401.907 321.092 403.945 317.399 405.982 313.707C408.019 310.015 413.748 311.67 415.403 307.978C417.822 299.83 409.674 292.827 409.674 292.827C412.602 292.063 423.169 282.642 422.788 274.366C422.406 266.218 414.639 262.907 413.748 259.215C412.984 255.523 407.127 243.682 407.127 243.682C430.554 245.338 444.432 207.142 444.432 207.142C454.235 191.1 446.469 194.41 455.508 180.915C464.548 167.419 453.853 169.074 474.351 142.847C496.123 116.619 505.544 105.925 502.234 92.8109Z" fill="#000000"/>

	<style>
    @media (prefers-color-scheme:dark){:root{filter:invert(100%)}}
  </style>
</svg>

