<svg width="572" height="178" viewBox="0 0 572 178" fill="none" xmlns="http://www.w3.org/2000/svg">
<path d="M560.575 88.322L560.891 88.954C561.049 89.744 558.363 90.06 557.099 90.218C556.625 90.376 556.151 90.376 555.835 90.534C552.991 91.166 549.989 91.956 547.145 92.904C541.457 94.642 536.875 96.538 532.767 98.434C526.447 101.594 520.601 105.07 519.021 113.76C517.599 121.66 513.017 128.928 505.117 135.722C502.115 138.408 498.797 139.83 495.637 139.83C493.583 139.83 491.529 139.04 489.949 137.776C485.841 134.142 485.841 127.664 490.107 122.134C495.637 115.182 503.537 110.442 511.279 106.334C516.177 103.806 516.651 100.488 512.701 94.958C511.279 92.904 510.015 90.85 508.909 88.796L507.645 86.9C505.275 83.108 505.433 79.948 507.803 77.42C515.861 69.362 526.131 64.78 538.139 64.1479H538.929C541.773 64.1479 543.985 64.938 545.407 66.518C546.987 68.414 547.461 70.942 546.671 73.786C545.881 77.104 544.143 79.79 540.983 82.002C540.351 82.476 539.719 82.95 538.929 82.95C538.455 82.95 537.981 82.792 537.507 82.476C536.243 81.528 536.559 80.422 537.349 79.158C538.455 76.788 539.719 74.576 540.825 72.364C541.457 71.258 542.089 69.994 541.141 68.414C540.509 67.466 539.561 66.992 538.455 66.992C537.981 66.992 537.665 66.992 537.349 66.992L536.875 67.15C526.763 68.098 518.547 72.048 512.385 78.684C510.489 80.738 510.647 83.424 513.175 86.268C514.597 87.848 515.861 89.744 516.967 91.64C519.495 95.59 521.233 98.592 524.393 98.592C525.499 98.592 526.605 98.276 527.869 97.644C535.927 93.852 544.617 91.324 551.885 89.112C553.149 88.796 556.309 87.848 558.679 87.848C559.943 87.848 560.417 88.164 560.575 88.322ZM500.061 135.564C508.593 130.982 513.491 123.082 515.545 110.758L514.439 110.442C514.281 111.232 511.437 112.654 510.015 113.444C509.067 113.76 508.435 114.234 507.961 114.392C505.433 116.288 503.221 117.868 501.325 119.764L500.219 120.712C496.743 123.556 492.161 127.664 491.687 131.93C491.687 133.352 492.003 134.458 492.635 135.248C493.425 136.038 494.531 136.512 495.953 136.512C497.691 136.512 499.113 136.038 500.061 135.564Z" fill="currentColor"/>
<path d="M570.865 38.5518C571.339 38.8678 571.497 39.4998 571.497 40.1318C571.655 40.7638 571.497 41.3958 569.917 41.3958C569.285 41.3958 568.495 41.2378 567.863 41.0798H567.231C555.539 39.4998 544.163 39.3418 533.577 39.3418H525.519C522.833 39.3418 519.989 39.3418 517.303 39.3418H517.145C513.827 39.3418 511.615 39.8158 510.193 42.5018L507.507 47.8738C493.761 74.5758 479.541 102.068 471.641 133.036C468.639 145.202 467.217 155.788 467.375 166.058C467.375 166.532 467.375 166.848 467.375 167.322C467.375 169.06 467.375 170.798 468.639 172.22C469.587 173.168 470.851 173.8 472.905 173.958C473.221 174.116 473.537 174.274 473.853 174.432C474.169 174.906 474.485 175.38 474.485 176.012C474.801 177.592 473.695 177.908 472.747 177.908H472.589C468.007 177.908 465.163 175.854 463.741 171.43C462.319 166.848 462.793 162.424 463.109 158.316L463.267 156.894C465.795 128.454 476.065 103.332 486.177 78.9998L486.967 76.9458C490.285 69.0458 494.077 61.3038 497.869 53.8778C499.607 50.2438 501.345 46.6098 503.083 43.1338C503.557 42.0278 504.189 40.9218 502.293 38.0778L502.135 37.7618H501.819C497.079 37.7618 492.181 37.6038 487.441 37.6038C482.385 37.6038 477.487 37.6038 472.589 37.6038C464.531 37.6038 457.895 37.6038 451.891 37.9198C449.363 38.0778 446.677 38.0778 444.149 38.0778C437.671 38.0778 430.877 38.2358 424.715 39.8158C423.925 39.9738 423.135 40.1318 422.345 40.1318C421.713 40.1318 421.081 39.9738 420.607 39.6578C420.133 39.1838 419.975 38.7098 419.659 38.0778C419.501 36.9718 419.817 36.6558 421.239 36.6558C421.555 36.6558 423.293 36.6558 423.293 36.6558H423.767C435.617 35.5497 447.625 35.3918 456.789 35.3918C461.687 35.3918 466.585 35.5498 471.483 35.5498C476.381 35.5498 481.279 35.7078 486.177 35.7078C490.759 35.7078 495.341 35.5498 499.923 35.5498C504.505 35.3918 507.981 34.4438 510.035 30.0198C514.617 20.6978 520.621 12.0078 528.363 3.47575C528.679 3.31776 528.837 3.00176 528.995 2.68575C529.785 1.89575 530.417 0.947754 531.365 0.947754C531.997 0.947754 532.629 1.26375 533.261 1.89575C535.315 3.63376 534.525 5.05576 533.103 7.10975C531.523 9.32175 530.101 11.3758 528.521 13.4298C523.939 19.7498 519.041 26.3858 515.091 34.6018L514.775 35.3918H528.679C540.055 35.3918 552.379 36.1818 566.599 37.7618C566.915 37.7618 567.389 37.7618 567.705 37.9198C568.969 37.9198 570.233 37.9198 570.865 38.5518Z" fill="currentColor"/>
<path d="M483.202 92.7458C483.518 93.2198 483.202 94.6418 482.096 95.5898C468.982 106.018 453.34 117.71 432.958 121.976C431.062 122.45 429.324 122.608 427.744 122.608C423.478 122.608 419.844 121.186 416.684 118.342C412.102 114.076 410.996 108.862 413.208 102.858C419.37 86.8998 431.22 74.4178 448.284 66.0438C450.338 65.0958 452.392 64.6218 454.288 64.6218C457.448 64.6218 460.292 65.8858 462.662 68.5718C467.402 74.1018 464.716 79.9478 462.662 83.1078C460.766 85.6358 458.396 87.6898 456.658 89.1118L456.342 89.4278C455.71 89.9018 454.604 90.8498 453.656 90.8498C453.182 90.6918 453.024 90.5338 452.866 90.3758C451.76 88.7958 455.71 83.5818 457.764 81.2118C458.87 79.6318 459.502 78.8418 459.66 78.3678C459.818 78.0518 459.976 77.7358 460.134 77.2618C460.608 75.8398 461.398 73.9438 459.186 72.0478C458.238 71.0998 457.132 70.7838 455.868 70.7838C454.762 70.7838 453.656 71.0998 452.392 71.7318C437.382 79.7898 426.164 91.6398 419.212 107.124C417.474 110.916 418.106 114.076 420.634 116.446C422.688 118.184 425.216 119.132 428.534 119.132C429.324 119.132 430.114 118.974 431.062 118.974C442.596 117.552 452.234 112.496 459.186 108.388C462.662 106.334 466.296 103.806 470.878 100.488C471.984 99.6978 473.09 98.7498 474.196 97.8018C476.408 96.0638 478.778 94.1678 481.306 92.9038C481.938 92.5878 482.412 92.4298 482.57 92.4298C483.044 92.4298 483.044 92.7458 483.202 92.7458Z" fill="currentColor"/>
<path d="M423.31 91.3238C423.784 91.6398 423.942 91.9558 424.1 92.2718C424.1 92.7458 423.626 93.2198 423.152 93.6938C413.356 103.332 402.138 112.812 386.654 116.92C384.758 117.394 383.02 117.71 381.44 117.71C378.438 117.71 375.752 116.762 373.698 115.024C370.696 112.338 368.642 107.756 367.852 101.278L367.694 100.172L363.27 104.122C360.268 106.65 357.266 109.02 354.264 111.548C350.63 114.55 346.364 116.762 341.94 118.184C340.676 118.5 339.57 118.816 338.464 118.816C336.568 118.816 334.988 118.184 333.566 116.92C330.88 114.55 329.774 112.022 330.09 108.704C331.67 95.4318 337.042 83.2658 347.154 70.1518C347.944 69.2038 348.734 68.5718 349.682 68.5718C350.156 68.5718 350.788 68.8878 351.578 69.5198C353 70.6258 352.526 71.8898 351.736 73.4698C350.156 76.7878 348.418 79.9478 346.522 83.4238C341.782 91.6398 336.884 100.33 336.094 110.284C335.936 111.232 336.094 112.338 336.884 113.286C337.358 113.76 337.832 114.076 338.622 114.076C338.938 114.076 339.096 114.076 339.412 114.076C341.782 114.076 344.152 112.97 345.89 112.022C359.162 105.07 368.01 96.3798 373.224 85.4778C373.382 84.8458 373.54 84.2138 373.856 83.5818C374.488 81.8438 375.12 79.7898 376.858 79.7898C377.332 79.7898 378.122 79.9478 378.912 80.4218C379.86 81.0538 380.492 81.5278 380.808 82.3178C381.282 83.5818 380.492 85.1618 379.86 86.7418C379.544 87.3738 379.07 88.1638 378.912 88.7958C378.438 90.5338 377.806 92.1138 377.174 93.8518C375.752 97.4858 374.488 101.278 374.014 105.386C373.698 108.388 374.33 110.6 375.752 112.022C377.174 113.444 379.386 114.234 382.862 114.234C389.972 114.234 395.186 111.39 400.084 108.546C409.248 103.016 415.884 97.8018 421.098 92.1138C421.256 91.9558 421.414 91.7978 421.414 91.6398C421.73 91.1658 422.046 90.8498 422.362 90.8498C422.678 90.8498 422.994 91.0078 423.31 91.3238Z" fill="currentColor"/>
<path d="M357.129 10.9019C360.763 13.2719 360.131 16.7479 359.657 19.9079C357.761 32.3899 350.967 41.5539 343.383 50.5599C335.167 60.6719 325.055 71.0999 311.625 83.1079C308.623 85.9519 306.411 88.9539 304.989 92.5879C298.827 108.862 291.085 129.086 292.349 152.312C292.349 152.944 292.349 153.576 292.349 154.208C292.349 157.052 292.349 160.212 295.193 163.372C295.983 164.162 296.457 164.952 296.299 165.584C296.299 166.058 295.983 166.532 295.193 166.848C294.877 167.006 294.403 167.006 293.929 167.006C292.665 167.006 291.559 166.216 290.769 164.794C289.347 161.792 289.031 158.632 288.873 155.788C288.241 134.616 293.297 115.972 298.037 101.91C298.037 101.752 298.195 101.594 298.353 101.278C298.827 100.33 299.301 99.3819 298.827 98.4339C298.511 97.6439 297.879 97.4859 297.563 97.3279H297.405C295.667 97.3279 293.929 99.0659 292.349 100.488C292.033 100.804 291.875 100.962 291.717 101.12C287.451 104.596 283.185 107.914 278.919 110.916L278.129 111.39C273.231 114.708 268.333 118.184 261.223 118.184C258.221 118.184 256.009 117.394 254.429 115.972C253.007 114.392 252.217 112.338 252.059 109.81C252.059 107.914 252.375 106.018 252.849 104.438C258.063 88.7959 267.859 77.4199 282.079 70.7839C284.607 69.6779 286.977 69.0459 289.189 69.0459C295.351 69.0459 300.565 73.4699 304.673 82.0019L305.147 83.1079L312.731 68.7299C318.735 57.3539 324.739 45.9779 330.743 34.7599C335.167 26.5439 340.223 18.0119 348.281 12.3239C350.019 11.0599 351.915 9.7959 353.969 9.7959C355.075 9.7959 356.023 10.1119 357.129 10.9019ZM298.195 92.1139C302.461 88.7959 299.933 85.1619 297.721 82.1599C297.089 81.3699 296.615 80.5799 296.141 79.7899C294.719 77.4199 292.823 76.1559 290.453 76.1559C289.347 76.1559 288.083 76.4719 286.503 76.9459C277.971 79.7899 272.125 85.6359 266.911 91.3239C262.013 96.5379 257.589 101.91 255.851 109.178C255.377 111.706 255.535 113.602 256.641 114.708C257.747 116.13 259.801 116.604 262.645 116.604C267.543 115.972 271.651 113.444 274.495 111.548C279.867 108.072 284.765 103.806 289.347 99.6979C292.191 97.1699 295.193 94.6419 298.195 92.1139ZM350.493 35.2339C352.547 31.7579 359.341 19.7499 356.971 15.6419C356.655 14.8519 356.023 14.3779 355.075 14.0619C354.917 13.9039 354.601 13.9039 354.285 13.9039C353.021 13.9039 351.441 14.6939 350.177 15.9579C347.807 18.3279 345.753 21.0139 343.699 23.6999L342.277 25.4379C338.643 29.8619 335.167 34.9179 331.849 40.6059C326.477 49.4539 321.895 59.0919 317.471 68.2559L315.259 72.8379L316.207 73.4699C316.997 72.0479 318.577 70.7839 320.157 69.5199C320.947 68.8879 321.579 68.4139 322.211 67.9399C324.265 65.8859 326.319 63.8319 328.373 61.7779C333.271 57.0379 337.063 53.0879 340.223 49.2959C344.331 44.3979 347.649 39.8159 350.493 35.2339Z" fill="currentColor"/>
<path d="M264.245 90.5339C265.193 90.6919 265.509 91.0079 265.509 91.0079C265.825 92.9039 260.927 94.4839 259.347 94.9579C256.503 95.7479 253.817 96.2219 250.973 96.2219C248.603 96.2219 246.075 95.9059 243.547 95.2739C242.283 94.9579 241.177 94.7999 240.229 94.7999C237.701 94.7999 236.121 96.0639 234.699 98.9079C231.697 105.544 226.799 111.074 220.163 115.34C218.583 116.446 216.213 117.71 213.843 117.71C212.263 117.71 210.683 117.236 209.261 116.13C204.995 113.444 204.995 109.178 205.153 105.07C205.943 94.3259 210.209 84.8459 217.951 76.7879C219.689 74.8919 221.585 72.9959 223.639 71.2579C225.219 69.8359 226.957 69.0459 228.853 69.0459C229.959 69.0459 231.223 69.3619 232.645 69.9939C235.647 71.4159 237.543 73.7859 238.649 77.8939C239.597 81.3699 239.597 84.6879 238.807 87.8479C238.333 89.5859 238.491 90.8499 239.281 91.6399C240.071 92.5879 241.493 93.0619 243.705 93.2199C245.127 93.2199 246.391 93.3779 247.655 93.3779C250.815 93.3779 253.501 93.0619 256.029 92.7459C257.293 92.5879 258.241 92.1139 259.347 91.6399C260.611 91.0079 261.875 90.5339 263.455 90.5339C263.613 90.5339 263.929 90.5339 264.245 90.5339ZM231.381 92.2719C231.381 91.9559 231.381 91.6399 231.539 91.1659C230.749 90.2179 230.117 89.5859 229.643 89.1119C228.221 87.6899 226.641 86.1099 225.061 84.8459C224.745 84.5299 224.429 84.2139 223.955 83.7399C223.165 82.7919 222.217 81.6859 221.111 81.6859C220.479 81.6859 220.005 82.0019 219.531 82.7919C213.211 91.3239 209.103 99.2239 208.945 109.336C208.945 111.074 209.419 112.496 210.209 113.286C210.841 113.918 211.631 114.234 212.579 114.234C213.369 114.234 214.159 114.076 214.949 113.602C224.113 109.02 228.379 100.488 231.223 93.6939C231.381 93.2199 231.381 92.7459 231.381 92.2719ZM232.803 85.9519C233.435 83.1079 234.067 80.2639 231.065 77.4199C230.591 76.9459 229.959 76.7879 229.327 76.7879C227.747 76.7879 226.167 78.3679 225.851 79.3159C224.745 82.6339 227.115 84.5299 229.485 86.4259C230.275 87.0579 230.907 87.5319 231.539 88.1639L232.171 88.7959L232.329 88.0059C232.487 87.2159 232.645 86.5839 232.803 85.9519Z" fill="currentColor"/>
<path d="M209.601 91.6399C210.391 91.7979 210.707 92.1139 210.707 92.2719C210.865 92.4299 210.707 92.9039 210.075 93.2199C208.337 94.3259 206.125 94.7999 203.755 94.7999C197.751 94.7999 190.957 91.4819 186.375 86.2679C182.583 81.8439 180.845 79.9479 178.633 79.9479C176.895 79.9479 175.315 81.0539 172.471 83.1079C162.517 90.2179 153.827 99.0659 145.453 107.756L141.661 111.706C141.345 112.022 141.029 112.338 140.713 112.654C140.081 113.602 139.449 114.55 138.343 114.55C137.711 114.55 136.921 114.234 136.131 113.602C133.761 111.864 134.393 109.968 135.025 108.23L135.183 107.598C139.449 94.1679 144.505 82.6339 150.825 72.3639L150.983 71.8899C151.773 70.7839 152.721 69.2039 153.985 69.2039C154.459 69.2039 154.933 69.3619 155.407 69.6779C156.197 70.1519 156.671 70.6259 156.987 71.2579C157.461 72.3639 156.671 73.4699 156.197 74.5759C156.039 74.8919 155.723 75.3659 155.565 75.6819L154.459 78.6839C153.037 82.0019 151.773 85.3199 150.351 88.4799C149.403 90.5339 148.455 92.5879 147.349 94.6419C147.349 94.6419 145.137 99.5399 145.927 100.488L146.085 100.804H146.559C148.613 100.33 149.877 98.9079 151.141 97.6439C151.773 97.0119 152.247 96.5379 152.721 96.0639L159.357 90.5339C163.623 86.8999 167.731 83.4239 172.155 80.1059C175.157 77.8939 177.053 76.9459 178.633 76.9459C181.161 76.9459 183.689 79.3159 187.639 84.2139C192.063 89.5859 198.225 92.9039 204.071 92.9039C205.019 92.9039 205.967 92.7459 206.915 92.5879C207.231 92.4299 207.705 92.2719 208.021 92.1139C208.653 91.9559 209.127 91.6399 209.601 91.6399Z" fill="currentColor"/>
<path d="M31.7756 164.794C31.3016 164.794 30.6696 164.636 30.0376 164.478C25.7716 163.056 24.8236 158.79 24.6656 157.052L24.5076 155.156C24.0336 151.206 23.5596 147.098 24.6656 144.096C28.1416 133.668 23.5596 123.24 17.7136 111.864C8.70763 94.484 -0.456368 73.944 0.017632 53.878C0.491632 25.438 16.4496 7.742 47.2596 1.58L48.0496 1.422C50.7356 0.948001 53.5796 0.315995 56.2656 0.157997C57.3716 -8.34465e-07 58.4776 0 59.5836 0L65.1136 0.157997C84.7056 0.789998 107.774 3.634 129.578 20.224C145.694 32.706 150.592 49.296 142.06 62.726C134.634 73.944 122.31 81.054 103.034 84.846C93.3956 86.584 83.1256 88.48 72.6976 88.48C66.8516 88.48 61.3216 87.848 55.9496 86.9C55.3176 86.742 54.6856 86.584 54.2116 86.584C50.8936 86.584 49.6296 88.954 48.6816 91.324L44.8896 100.488C42.0456 107.282 39.3596 113.918 36.5156 120.712C33.1976 129.244 30.5116 137.776 35.2516 148.836C36.8316 152.47 36.1996 156.104 35.5676 159.738C35.0936 162.266 34.3036 164.794 31.7756 164.794ZM113.62 13.588C98.4516 6.32 82.9676 2.686 67.3256 2.686C60.8476 2.686 54.2116 3.318 47.7336 4.582C28.4576 8.216 15.6596 16.748 8.70763 30.81C-0.456367 48.822 1.28163 70.784 14.2376 98.118C16.7656 103.648 19.4516 109.178 22.4536 115.024L27.1936 124.978L27.6676 123.714C29.0896 120.396 30.3536 117.236 31.6176 114.076C34.6196 106.492 37.4636 99.382 40.7816 92.588C41.5716 91.008 48.2076 76.788 48.9976 74.892L49.7876 73.312C57.3716 57.67 66.6936 39.342 77.1216 21.646L80.1236 16.59C81.3876 14.536 82.8096 12.482 85.0216 12.324C85.6536 12.64 85.9696 13.746 84.0736 17.696L83.7576 18.17C81.5456 23.7 79.0176 29.072 76.4896 34.444L75.0676 37.288C72.8556 42.028 70.4856 46.768 68.1156 51.508C66.2196 55.3 64.3236 59.092 62.4276 63.042C59.4256 68.888 56.5816 75.05 53.8956 81.054L53.5796 81.844L54.6856 82.002C59.1096 82.634 63.6916 82.95 68.2736 82.95C76.6476 82.95 84.2316 82.002 91.9736 81.054C104.298 79.474 119.782 76.472 131.316 66.518C138.9 60.198 145.852 51.666 139.848 37.604C134.318 24.648 122.31 17.696 113.62 13.588Z" fill="currentColor"/>
</svg>
